<svg width="250" height="307" viewBox="0 0 250 307" fill="none" xmlns="http://www.w3.org/2000/svg">
<path d="M123.5 307C191.707 307 247 251.707 247 183.5C247 115.293 191.707 60 123.5 60C55.2928 60 0 115.293 0 183.5C0 251.707 55.2928 307 123.5 307Z" fill="#FAEFE9"/>
<g clip-path="url(#clip0)">
<path d="M226.831 87.649L217.556 84.3854L210.455 104.622L219.731 107.885L226.831 87.649Z" fill="#1F161E"/>
<path d="M232.973 216.783C233.366 217.683 235.456 223.095 236.614 223.648C238.711 224.641 249.567 218.942 249.86 218.189C250.153 217.436 249.987 216.19 249.374 216.083C248.762 215.976 243.916 217.043 243.131 216.89C242.345 216.736 240.528 214.89 240.315 213.557" fill="#1F161E"/>
<path d="M97 134.833C97 170.825 108.435 178.384 119.811 178.384C148.626 178.384 186.114 155.242 188.23 154.349C187.565 158.135 183.365 254.102 183.365 254.655C184.363 255.435 192.018 256.108 194.594 255.435C195.259 253.102 215.501 138.959 215.501 135.953C215.501 132.946 213.757 128.374 207.161 127.714C204.372 127.434 165.572 125.821 165.572 125.821" fill="#1F161E"/>
<path d="M194.8 109.311C203.54 121.975 242.565 210.378 242.219 212.444C241.873 214.51 232.9 218.889 231.003 217.709C222.956 212.744 173.547 129.307 171.623 128.047C169.699 126.788 166.817 127.274 165.1 127.621C160.634 120.189 170.631 111.364 194.8 109.311Z" fill="#55B79D"/>
<path d="M155.675 38.3656C168.707 38.3656 172.455 50.7231 173.533 55.3888C176.981 70.2858 167.383 126.894 166.271 128.454C156.839 141.658 102.924 142.831 97.6656 137.112C92.4072 131.393 120.064 38.3656 155.675 38.3656Z" fill="#73E5E2"/>
<path d="M185.887 253.282C185.714 254.249 184.41 259.907 185.062 261.014C186.233 263.014 198.421 264.393 199.087 263.933C199.752 263.473 200.305 262.347 199.865 261.934C199.426 261.521 194.807 259.668 194.241 259.094C193.675 258.521 193.202 255.975 193.782 254.749" fill="#1F161E"/>
<path d="M153.724 40.9717C153.372 42.1048 162.57 44.9709 162.923 43.8445L166.491 32.3801L157.299 29.5074L153.724 40.9717Z" fill="#F8CDBA"/>
<path d="M162.843 35.0929C161.945 34.813 155.415 35.5661 154.976 36.9792L157.299 29.5074C158.73 29.9539 162.843 35.0929 162.843 35.0929Z" fill="#1F161E"/>
<path d="M167.975 36.9325C175.434 36.9325 181.481 30.8777 181.481 23.4086C181.481 15.9395 175.434 9.88467 167.975 9.88467C160.516 9.88467 154.47 15.9395 154.47 23.4086C154.47 30.8777 160.516 36.9325 167.975 36.9325Z" fill="#F8CDBA"/>
<path d="M181.446 30.533C181.649 29.8829 180.8 29.0394 179.551 28.649C178.302 28.2587 177.125 28.4692 176.922 29.1193C176.72 29.7694 177.568 30.6129 178.817 31.0033C180.067 31.3936 181.244 31.1831 181.446 30.533Z" fill="#FA9E9F"/>
<path d="M167.246 26.0988C167.448 25.4487 166.6 24.6053 165.35 24.2149C164.101 23.8245 162.924 24.0351 162.722 24.6852C162.519 25.3353 163.367 26.1787 164.617 26.5691C165.866 26.9595 167.043 26.7489 167.246 26.0988Z" fill="#FA9E9F"/>
<path d="M174.438 25.6682C174.671 26.4013 176.056 29.614 173.453 29.9273" stroke="#1F161E" stroke-width="1.2" stroke-miterlimit="10" stroke-linecap="round"/>
<path d="M167.969 31.4603C167.303 31.227 166.504 30.0806 166.191 29.1408" stroke="#1F161E" stroke-width="1.2" stroke-miterlimit="10" stroke-linecap="round"/>
<path d="M172.062 5.66552C168.501 5.21895 158.164 2.13957 155.814 0C154.703 0.586548 150.383 4.47243 146.862 9.73137L151.861 14.7637L145.544 11.8443C143.879 14.5759 142.735 17.593 142.169 20.7425C143.8 25.1483 148.919 26.9612 149.884 27.0812C156.107 27.8677 158.497 18.183 161.632 16.9832C166.957 14.937 173.227 20.2492 181.115 19.916C182.865 16.3367 180.589 6.73864 172.062 5.66552Z" fill="#1F161E"/>
<path d="M155.595 24.2951C157.319 24.2951 158.717 22.8955 158.717 21.1691C158.717 19.4426 157.319 18.043 155.595 18.043C153.871 18.043 152.473 19.4426 152.473 21.1691C152.473 22.8955 153.871 24.2951 155.595 24.2951Z" fill="#F8CDBA"/>
<path d="M142.169 70.0659C141.504 74.2384 139.347 113.637 144.512 117.47C155.575 125.675 206.661 115.637 214.403 112.764C215.241 110.018 214.403 101.293 214.403 101.293C211.421 101.173 173.8 100.813 171.556 97.9602C169.313 95.1075 169.047 71.7855 169.406 69.1527" fill="#73E5E2"/>
<path d="M219.608 113.677C223.604 113.677 226.843 110.433 226.843 106.432C226.843 102.43 223.604 99.1866 219.608 99.1866C215.612 99.1866 212.372 102.43 212.372 106.432C212.372 110.433 215.612 113.677 219.608 113.677Z" fill="#F8CDBA"/>
<path d="M171.55 97.9802C169.28 95.1075 169.04 71.8055 169.4 69.1727" stroke="#1F161E" stroke-linecap="round" stroke-linejoin="round"/>
<path d="M168.015 120.429C157.592 121.009 148.479 120.429 144.512 117.47C142.249 115.797 141.39 107.312 141.184 97.9469" stroke="#1F161E" stroke-linecap="round" stroke-linejoin="round"/>
</g>
<defs>
<clipPath id="clip0">
<rect width="153" height="264" fill="white" transform="translate(97)"/>
</clipPath>
</defs>
</svg>
